PathFileType	4	(X/Y/Z)	C:\Documents and Settings\mvidt\Desktop\Forward_reach_ACS_12-5-11\acs_static-redo2.trc
DataRate	CameraRate	NumFrames	NumMarkers	Units	OrigDataRate	OrigDataStartFrame	OrigNumFrames
200.00	200.00	      41	10	mm	200.00	251	      2000
Frame#	Time	R.Clavicle			C7			R.Shoulder			R.Bicep			R.Elbow.Lateral			R.Forearm			R.Radius			Handle			R.Elbow.Medial			R.Ulna			
		X1	Y1	Z1	X2	Y2	Z2	X3	Y3	Z3	X4	Y4	Z4	X5	Y5	Z5	X6	Y6	Z6	X7	Y7	Z7	X8	Y8	Z8	X9	Y9	Z9	X10	Y10	Z10	

251	1.250	-254.52058	402.36966	329.05432	-392.02432	399.48627	419.18561	-260.94998	247.70128	326.63855	-99.19188	257.38208	280.25009				37.22892	279.46469	312.16888	133.49557	362.64395	417.88193	200.32237	418.25540	513.61676	-6.58751	311.56726	183.81314	194.33667	311.43372	381.60815	
252	1.255	-254.52058	402.36966	329.05432	-392.02432	399.48627	419.18561	-260.94998	247.70128	326.63855	-99.19188	257.38208	280.25009				37.22892	279.46469	312.16888	133.49557	362.64395	417.88193	200.32237	418.25540	513.61676	-6.58751	311.56726	183.81314	194.33667	311.43372	381.60815	
253	1.260	-254.52058	402.36966	329.05432	-392.02432	399.48627	419.18561	-260.94998	247.70128	326.63855	-99.19188	257.38208	280.25009				37.22892	279.46469	312.16888	133.49557	362.64395	417.88193	200.32237	418.25540	513.61676	-6.54435	311.83066	183.85741	194.33667	311.43372	381.60815	
254	1.265	-254.91702	402.54541	329.24750	-392.02432	399.48627	419.18561	-260.94998	247.70128	326.63855	-99.19188	257.38208	280.25009				37.22892	279.46469	312.16888	133.49557	362.64395	417.88193	200.32237	418.25540	513.61676	-6.54435	311.83066	183.85741	194.33667	311.43372	381.60815	
255	1.270	-254.52058	402.36966	329.05432	-392.02432	399.48627	419.18561	-260.94998	247.70128	326.63855	-99.19188	257.38208	280.25009				36.73102	279.33276	312.44760	133.49557	362.64395	417.88193	200.38002	418.24646	513.53784	-6.54435	311.83066	183.85741	194.33667	311.43372	381.60815	
256	1.275	-254.52058	402.36966	329.05432	-392.02432	399.48627	419.18561	-260.94998	247.70128	326.63855	-99.19188	257.38208	280.25009				37.22892	279.46469	312.16888	133.49557	362.64395	417.88193	200.78229	418.09879	513.20721	-6.54435	311.83066	183.85741	194.33667	311.43372	381.60815	
257	1.280	-254.52058	402.36966	329.05432	-392.02432	399.48627	419.18561	-260.94998	247.70128	326.63855	-99.19188	257.38208	280.25009				37.22892	279.46469	312.16888	133.49557	362.64395	417.88193	200.38002	418.24646	513.53784	-6.54435	311.83066	183.85741	194.33667	311.43372	381.60815	
258	1.285	-254.52058	402.36966	329.05432	-392.02432	399.48627	419.18561	-260.76376	247.44298	326.55579	-99.19188	257.38208	280.25009				37.22892	279.46469	312.16888	133.49557	362.64395	417.88193	200.56062	418.36252	513.37665	-6.54435	311.83066	183.85741	194.33667	311.43372	381.60815	
259	1.290	-254.52058	402.36966	329.05432	-392.02432	399.48627	419.18561	-260.94998	247.70128	326.63855	-99.19188	257.38208	280.25009				37.22892	279.46469	312.16888	133.62386	362.73407	417.61514	200.78229	418.09879	513.20721	-6.54435	311.83066	183.85741	194.33667	311.43372	381.60815	
260	1.295	-254.52058	402.36966	329.05432	-391.61862	399.33530	419.27310	-260.76376	247.44298	326.55579	-99.19188	257.38208	280.25009				37.22892	279.46469	312.16888	133.62386	362.73407	417.61514	200.56062	418.36252	513.37665	-6.81338	312.04990	183.96645	194.33667	311.43372	381.60815	
261	1.300	-254.52058	402.36966	329.05432	-391.00351	398.97720	418.98355	-260.76376	247.44298	326.55579	-99.19188	257.38208	280.25009				37.22892	279.46469	312.16888	134.13489	362.98984	417.47662	200.56062	418.36252	513.37665	-6.81338	312.04990	183.96645	194.33667	311.43372	381.60815	
262	1.305	-254.52058	402.36966	329.05432	-391.00351	398.97720	418.98355	-260.76376	247.44298	326.55579	-99.19188	257.38208	280.25009				37.22892	279.46469	312.16888	134.13489	362.98984	417.47662	200.80873	418.13425	513.31091	-6.86331	312.20523	183.89403	194.40710	311.23730	381.42648	
263	1.310	-254.52058	402.36966	329.05432	-391.00351	398.97720	418.98355	-260.76376	247.44298	326.55579	-99.19188	257.38208	280.25009				37.22892	279.46469	312.16888	134.35263	362.67490	417.24008	200.56062	418.36252	513.37665	-6.86331	312.20523	183.89403	194.40710	311.23730	381.42648	
264	1.315	-254.52058	402.36966	329.05432	-391.00351	398.97720	418.98355	-260.76376	247.44298	326.55579	-99.19188	257.38208	280.25009				37.22892	279.46469	312.16888	134.35263	362.67490	417.24008	200.56062	418.36252	513.37665	-6.90652	312.38000	183.86751	194.40710	311.23730	381.42648	
265	1.320	-254.52058	402.36966	329.05432	-391.00351	398.97720	418.98355	-260.76376	247.44298	326.55579	-99.19188	257.38208	280.25009				37.22892	279.46469	312.16888	134.35263	362.67490	417.24008	200.83516	418.16971	513.41461	-6.90652	312.38000	183.86751	194.40710	311.23730	381.42648	
266	1.325	-254.52058	402.36966	329.05432	-391.00351	398.97720	418.98355	-260.94998	247.70128	326.63855	-99.19188	257.38208	280.25009				37.22892	279.46469	312.16888	134.35263	362.67490	417.24008	200.83516	418.16971	513.41461	-6.90652	312.38000	183.86751	194.45760	311.47516	381.19461	
267	1.330	-254.52058	402.36966	329.05432	-391.00351	398.97720	418.98355	-260.76376	247.44298	326.55579	-99.19188	257.38208	280.25009				37.22892	279.46469	312.16888	134.35263	362.67490	417.24008	200.83516	418.16971	513.41461	-6.90652	312.38000	183.86751	194.40710	311.23730	381.42648	
268	1.335	-255.01007	402.73346	328.74127	-391.00351	398.97720	418.98355	-260.76376	247.44298	326.55579	-99.19188	257.38208	280.25009				37.22892	279.46469	312.16888	134.35263	362.67490	417.24008	200.83516	418.16971	513.41461	-6.90652	312.38000	183.86751	194.76488	311.28610	381.51721	
269	1.340	-255.01007	402.73346	328.74127	-391.00351	398.97720	418.98355	-260.73553	247.58894	326.50259	-99.19188	257.38208	280.25009				37.22892	279.46469	312.16888	134.41798	362.67905	417.09644	200.56062	418.36252	513.37665	-6.83178	312.60172	183.95496	194.45760	311.47516	381.19461	
270	1.345	-254.52058	402.36966	329.05432	-391.00351	398.97720	418.98355	-260.76376	247.44298	326.55579	-99.19188	257.38208	280.25009				37.22892	279.46469	312.16888	134.39354	362.89734	417.22137	200.63467	418.30692	513.31555	-6.83178	312.60172	183.95496	194.76488	311.28610	381.51721	
271	1.350	-255.01007	402.73346	328.74127	-391.00351	398.97720	418.98355	-260.76376	247.44298	326.55579	-99.19188	257.38208	280.25009				37.22892	279.46469	312.16888	134.38138	363.02530	417.14163	200.90921	418.11411	513.35352	-6.83178	312.60172	183.95496	194.45760	311.47516	381.19461	
272	1.355	-255.01007	402.73346	328.74127	-391.00351	398.97720	418.98355	-260.73553	247.58894	326.50259	-99.19188	257.38208	280.25009				37.22892	279.46469	312.16888	134.59918	362.71033	416.90503	200.83516	418.16971	513.41461	-6.83178	312.60172	183.95496	194.76488	311.28610	381.51721	
273	1.360	-254.52058	402.36966	329.05432	-391.35669	399.07642	418.80167	-260.92175	247.84721	326.58536	-99.19188	257.38208	280.25009				37.22892	279.46469	312.16888	134.38138	363.02530	417.14163	200.63467	418.30692	513.31555	-6.73115	312.73129	184.08054	194.45760	311.47516	381.19461	
274	1.365	-255.01007	402.73346	328.74127	-391.00351	398.97720	418.98355	-260.92175	247.84721	326.58536	-99.19188	257.38208	280.25009				37.90748	280.75378	312.13931	134.59918	362.71033	416.90503	200.96634	418.26266	513.36462	-6.94344	312.66959	183.87524	194.96117	311.72824	380.84088	
275	1.370	-254.52058	402.36966	329.05432	-391.00351	398.97720	418.98355	-260.92175	247.84721	326.58536	-99.19188	257.38208	280.25009				37.90748	280.75378	312.13931	134.59918	362.71033	416.90503	200.69179	418.45544	513.32660	-6.94580	312.88098	183.86247	195.01965	312.48410	380.48914	
276	1.375	-254.52058	402.36966	329.05432	-391.35669	399.07642	418.80167	-260.92175	247.84721	326.58536	-99.19188	257.38208	280.25009				37.90748	280.75378	312.13931	134.59918	362.71033	416.90503	200.72607	418.59921	513.30914	-7.04224	312.74808	183.74240	195.01965	312.48410	380.48914	
277	1.380	-254.52058	402.36966	329.05432	-391.35669	399.07642	418.80167	-260.92175	247.84721	326.58536	-99.19188	257.38208	280.25009				37.90748	280.75378	312.13931	134.91879	362.88345	416.70239	200.72607	418.59921	513.30914	-7.04224	312.74808	183.74240	195.01965	312.48410	380.48914	
278	1.385	-254.52058	402.36966	329.05432	-391.35669	399.07642	418.80167	-260.92175	247.84721	326.58536	-99.19188	257.38208	280.25009				37.90748	280.75378	312.13931	134.70087	363.19846	416.93912	200.72607	418.59921	513.30914	-7.04224	312.74808	183.74240	195.01965	312.48410	380.48914	
279	1.390	-254.52058	402.36966	329.05432	-391.00351	398.97720	418.98355	-260.92175	247.84721	326.58536	-99.19188	257.38208	280.25009				37.90748	280.75378	312.13931	134.91879	362.88345	416.70239	200.72607	418.59921	513.30914	-7.04224	312.74808	183.74240	195.01965	312.48410	380.48914	
280	1.395	-254.52058	402.36966	329.05432	-391.00351	398.97720	418.98355	-260.92175	247.84721	326.58536	-99.19188	257.38208	280.25009				37.90748	280.75378	312.13931	134.91879	362.88345	416.70239	200.78687	418.47876	513.17346	-7.04224	312.74808	183.74240	195.01965	312.48410	380.48914	
281	1.400	-254.52058	402.36966	329.05432	-391.61862	399.33530	419.27310	-260.92175	247.84721	326.58536	-99.19188	257.38208	280.25009				37.90748	280.75378	312.13931	134.70087	363.19846	416.93912	200.54544	418.69357	513.22418	-7.11374	312.54422	183.65823	194.94069	312.48785	379.92001	
282	1.405	-254.52058	402.36966	329.05432	-391.00351	398.97720	418.98355	-260.92175	247.84721	326.58536	-99.19188	257.38208	280.25009				37.90748	280.75378	312.13931	134.71521	363.36975	416.88199	200.54544	418.69357	513.22418	-7.11374	312.54422	183.65823	195.09335	312.47046	380.20819	
283	1.410	-254.52058	402.36966	329.05432	-391.00351	398.97720	418.98355	-260.92175	247.84721	326.58536	-99.19188	257.38208	280.25009				37.90748	280.75378	312.13931	134.83366	363.77484	416.88385	200.54544	418.69357	513.22418	-7.11374	312.54422	183.65823	194.83653	312.50488	380.14343	
284	1.415	-253.91638	402.94470	328.70102	-391.61862	399.33530	419.27310	-260.92175	247.84721	326.58536	-99.19188	257.38208	280.25009				37.90748	280.75378	312.13931	134.83366	363.77484	416.88385	200.60625	418.61264	512.97345	-7.11871	312.31818	183.66212	194.59412	312.86661	379.83221	
285	1.420	-253.91638	402.94470	328.70102	-391.00351	398.97720	418.98355	-260.92175	247.84721	326.58536	-99.19188	257.38208	280.25009				37.90748	280.75378	312.13931	134.83366	363.77484	416.88385	200.48526	418.95947	513.04346	-7.11871	312.31818	183.66212	194.59412	312.86661	379.83221	
286	1.425	-253.91638	402.94470	328.70102	-391.00351	398.97720	418.98355	-260.92175	247.84721	326.58536	-99.19188	257.38208	280.25009				37.90748	280.75378	312.13931	134.80370	363.86563	416.79282	200.48526	418.95947	513.04346	-7.26279	312.44562	183.61487	194.59412	312.86661	379.83221	
287	1.430	-253.91638	402.94470	328.70102	-391.00351	398.97720	418.98355	-260.92175	247.84721	326.58536	-99.32555	257.83441	280.03668				37.90748	280.75378	312.13931	134.80370	363.86563	416.79282	200.42720	419.14590	512.94904	-7.11871	312.31818	183.66212	194.59412	312.86661	379.83221	
288	1.435	-253.91638	402.94470	328.70102	-391.61862	399.33530	419.27310	-260.92175	247.84721	326.58536	-99.32555	257.83441	280.03668				37.90748	280.75378	312.13931	134.49701	364.18515	416.91214	200.50510	419.22061	512.95496	-7.11871	312.31818	183.66212	194.59412	312.86661	379.83221	
289	1.440	-253.91638	402.94470	328.70102	-391.61862	399.33530	419.27310	-260.92175	247.84721	326.58536	-99.19188	257.38208	280.25009				37.90748	280.75378	312.13931	134.49701	364.18515	416.91214	200.50510	419.22061	512.95496	-7.11871	312.31818	183.66212	194.74028	313.19189	379.89124	
290	1.445	-253.91638	402.94470	328.70102	-391.50427	399.54785	419.19727	-260.92175	247.84721	326.58536	-99.19188	257.38208	280.25009	-5.48653	226.29610	212.24532	37.90748	280.75378	312.13931	134.74609	364.00366	416.95038	200.50510	419.22061	512.95496	-7.30993	312.48224	183.65320	194.74028	313.19189	379.89124	
291	1.450	-253.91638	402.94470	328.70102	-390.88901	399.18982	418.90765	-260.92175	247.84721	326.58536	-99.19188	257.38208	280.25009	-5.50552	227.07913	212.97972	37.90748	280.75378	312.13931	134.49701	364.18515	416.91214	200.64270	419.49643	513.02716	-7.25779	312.67163	183.61096	194.74028	313.19189	379.89124	
